<svg width="128" height="128" viewBox="0 0 24 24"><path d="M9.5 21h-7A2.503 2.503 0 0 1 0 18.5v-16C0 1.122 1.122 0 2.5 0h11C14.878 0 16 1.122 16 2.5v9a.5.5 0 0 1-1 0v-9c0-.827-.673-1.5-1.5-1.5h-11C1.673 1 1 1.673 1 2.5v16c0 .827.673 1.5 1.5 1.5h7a.5.5 0 0 1 0 1z"/><path d="M3.5 13a.5.5 0 0 1-.354-.853l2.5-2.5a.497.497 0 0 1 .577-.094l1.678.839 3.245-3.245a.5.5 0 0 1 .707.707l-3.5 3.5a.501.501 0 0 1-.577.094l-1.678-.839-2.245 2.245A.498.498 0 0 1 3.5 13z"/><path d="M11.5 11a.5.5 0 0 1-.5-.5V8H8.5a.5.5 0 0 1 0-1h3a.5.5 0 0 1 .5.5v3a.5.5 0 0 1-.5.5zM14.5 24h-1c-.827 0-1.5-.673-1.5-1.5v-5c0-.827.673-1.5 1.5-1.5h1c.827 0 1.5.673 1.5 1.5v5c0 .827-.673 1.5-1.5 1.5zm-1-7a.5.5 0 0 0-.5.5v5a.5.5 0 0 0 .5.5h1a.5.5 0 0 0 .5-.5v-5a.5.5 0 0 0-.5-.5h-1z"/><path d="M21 24h-.76c-2.701 0-4.285-.674-4.988-1.076a.5.5 0 1 1 .496-.868c.497.284 1.93.944 4.492.944H21c.703 0 1.338-.519 1.446-1.181a.621.621 0 0 1 .01-.046c.06-.292.531-3.095.544-3.372A1.41 1.41 0 0 0 21.59 17h-2.75a.5.5 0 0 1-.415-.779c.001-.003.385-.605.385-1.591 0-.998-.401-1.36-.67-1.36-.094.013-.2.155-.2.9 0 1.549-1.542 2.68-2.205 3.094a.5.5 0 0 1-.53-.848c.407-.254 1.735-1.168 1.735-2.246 0-.617 0-1.9 1.2-1.9.804 0 1.67.738 1.67 2.36 0 .553-.095 1.017-.207 1.37h1.987A2.413 2.413 0 0 1 24 18.41c0 .032-.124 2.541-.61 3.563l.044.007C23.246 23.132 22.2 24 21 24z"/></svg>