<svg xmlns="http://www.w3.org/2000/svg" xml:space="preserve" width="64" height="64" viewBox="0 0 24 24"><path d="M18.677 23.994c-.974 0-2.102-.308-3.398-.923-1.447-.686-2.142-.663-2.604-.64-.371.012-.758.029-1.14-.353-.134-.134-.743-.864.454-2.061.597-.597 1.416-.769 2.127-.779L9.97 15.092a1.441 1.441 0 0 1-.426-1.03c.001-.389.153-.754.429-1.029s.641-.428 1.03-.429h.002c.388 0 .753.151 1.028.427l1.722 1.723a1.43 1.43 0 0 1 .273-.376 1.452 1.452 0 0 1 1.462-.362 1.458 1.458 0 0 1 2.324-.618 1.458 1.458 0 0 1 2.334-.383l2.7 2.7c1.695 1.694 1.506 4.15-.461 6.118l-.013.013-1.117 1.116c-.696.688-1.552 1.032-2.58 1.032zm-5.731-2.569c.546 0 1.385.09 2.762.742 2.985 1.417 4.195.729 4.847.086l1.126-1.126.01-.01c1.192-1.206 2.009-3.137.459-4.687l-2.708-2.708a.458.458 0 0 0-.65.648l.001.001.675.675a.498.498 0 0 1 0 .708.5.5 0 0 1-.707 0l-1.575-1.575a.457.457 0 0 0-.646.003.457.457 0 0 0-.002.646l1.125 1.125a.498.498 0 0 1 0 .708.5.5 0 0 1-.707 0l-1.575-1.575a.46.46 0 0 0-.649.648l1.125 1.125a.498.498 0 0 1 0 .708.5.5 0 0 1-.707 0l-3.825-3.824a.452.452 0 0 0-.321-.134.46.46 0 0 0-.327.781l5.175 5.175a.498.498 0 0 1 .076.608.504.504 0 0 1-.571.225c-.019-.005-1.81-.519-2.662.331-.387.388-.444.626-.434.679.043.029.051.039.374.027.093-.006.196-.01.311-.01zm5.498-8.053h.01-.01zM5.25 9H3.5a.5.5 0 0 1-.5-.5v-5a.5.5 0 0 1 .5-.5h1.75a1.752 1.752 0 0 1 1.224 3A1.748 1.748 0 0 1 5.25 9zM4 8h1.25a.75.75 0 0 0 0-1.5H4V8zm0-2.5h1.25a.75.75 0 0 0 0-1.5H4v1.5zM11.5 9h-1C9.673 9 9 8.327 9 7.5v-4a.5.5 0 0 1 1 0v4a.5.5 0 0 0 .5.5h1a.5.5 0 0 0 .5-.5v-4a.5.5 0 0 1 1 0v4c0 .827-.673 1.5-1.5 1.5zM17 6.5a.5.5 0 0 1-.429-.243l-1.5-2.5a.5.5 0 0 1 .857-.514L17 5.028l1.071-1.785a.5.5 0 1 1 .857.514l-1.5 2.5A.497.497 0 0 1 17 6.5z"/><path d="M17 9a.5.5 0 0 1-.5-.5V6a.5.5 0 0 1 1 0v2.5a.5.5 0 0 1-.5.5z"/><path d="M7.5 12h-5A2.503 2.503 0 0 1 0 9.5v-7C0 1.121 1.122 0 2.5 0h17C20.878 0 22 1.121 22 2.5v7a2.48 2.48 0 0 1-.45 1.426.5.5 0 0 1-.821-.572c.178-.253.271-.549.271-.854v-7c0-.827-.673-1.5-1.5-1.5h-17C1.673 1 1 1.673 1 2.5v7c0 .827.673 1.5 1.5 1.5h5a.5.5 0 0 1 0 1z"/></svg>