<svg xmlns="http://www.w3.org/2000/svg" xml:space="preserve" width="64" height="64" viewBox="0 0 24 24"><path d="M22.5 21h-21C.673 21 0 20.327 0 19.5v-14C0 4.673.673 4 1.5 4h21c.827 0 1.5.673 1.5 1.5v14c0 .827-.673 1.5-1.5 1.5zM1.5 5a.5.5 0 0 0-.5.5v14a.5.5 0 0 0 .5.5h21a.5.5 0 0 0 .5-.5v-14a.5.5 0 0 0-.5-.5h-21z"/><path d="M15.5 24h-7a.5.5 0 0 1-.354-.854c1.316-1.316 1.334-2.59 1.334-2.644a.504.504 0 0 1 .5-.502H14a.5.5 0 0 1 .5.497c.001.063.04 1.336 1.354 2.649A.499.499 0 0 1 15.5 24zm-5.93-1h4.857a5.208 5.208 0 0 1-.87-2h-3.13c-.083.465-.3 1.2-.857 2zm4.93-2.5h.01-.01zM23.5 18H.5a.5.5 0 0 1 0-1h23a.5.5 0 0 1 0 1zM9.5 15h-6a.5.5 0 0 1-.5-.5v-8a.5.5 0 0 1 .5-.5h6a.5.5 0 0 1 .5.5v8a.5.5 0 0 1-.5.5zM4 14h5V7H4v7zM19.5 8h-8a.5.5 0 0 1 0-1h8a.5.5 0 0 1 0 1zM17.5 13h-6a.5.5 0 0 1-.5-.5v-2a.5.5 0 0 1 .5-.5h6a.5.5 0 0 1 .5.5v2a.5.5 0 0 1-.5.5zM12 12h5v-1h-5v1z"/></svg>