<svg width="120" height="27" viewBox="0 0 120 27" fill="none" xmlns="http://www.w3.org/2000/svg">
<g opacity="0.9">
<path fill-rule="evenodd" clip-rule="evenodd" d="M58.6971 14.8627V0.347663C58.6971 0.152074 58.5222 0.00336239 58.3289 0.0335358L55.6039 0.461352C55.5288 0.473185 55.4604 0.511383 55.411 0.569069C55.3616 0.626755 55.3344 0.700141 55.3344 0.776018L55.3436 15.4974C55.3436 16.1936 55.3436 20.4922 60.5262 20.6425C60.706 20.6479 60.8551 20.5035 60.8551 20.3241V18.1268C60.8551 17.9673 60.7368 17.8299 60.5786 17.8122C58.6966 17.5961 58.6966 15.249 58.6966 14.8638L58.6971 14.8627Z" fill="#090909"/>
<path d="M103.636 5.67273H100.894C100.852 5.67273 100.811 5.68096 100.772 5.69693C100.734 5.71291 100.699 5.73633 100.669 5.76585C100.639 5.79536 100.616 5.83041 100.6 5.86898C100.584 5.90755 100.576 5.94889 100.576 5.99063V20.3284C100.576 20.3701 100.584 20.4115 100.6 20.4501C100.616 20.4886 100.639 20.5237 100.669 20.5532C100.699 20.5827 100.734 20.6061 100.772 20.6221C100.811 20.6381 100.852 20.6463 100.894 20.6463H103.636C103.812 20.6463 103.955 20.5039 103.955 20.3284V5.99063C103.955 5.81509 103.812 5.67273 103.636 5.67273Z" fill="#090909"/>
<path fill-rule="evenodd" clip-rule="evenodd" d="M103.636 3.87526C103.812 3.87526 103.955 3.73301 103.955 3.55736V0.347663C103.955 0.152613 103.78 0.00336239 103.586 0.0335358L100.845 0.461891C100.77 0.473606 100.701 0.511696 100.652 0.569292C100.602 0.626889 100.575 0.700204 100.575 0.776018V3.55736C100.575 3.73301 100.718 3.87526 100.894 3.87526H103.636ZM96.1556 14.8627V0.347663C96.1556 0.152074 95.9806 0.00336239 95.7873 0.0335358L93.0624 0.461352C92.9872 0.473185 92.9188 0.511383 92.8694 0.569069C92.82 0.626755 92.7929 0.700141 92.7929 0.776018L92.8021 15.4974C92.8021 16.1936 92.8021 20.4922 97.9846 20.6425C98.1645 20.6479 98.3135 20.5035 98.3135 20.3241V18.1268C98.3135 17.9673 98.1952 17.8299 98.037 17.8122C96.155 17.5961 96.1551 15.249 96.1551 14.8638L96.1556 14.8627ZM89.023 7.71968C88.4214 7.05964 87.6821 6.55315 86.8208 6.1943C85.9611 5.84246 85.0247 5.66358 84.0089 5.66358C82.9948 5.66358 82.0568 5.83438 81.2052 6.1943C80.3633 6.55315 79.6234 7.0591 79.004 7.71968C78.3846 8.37864 77.9035 9.16746 77.5589 10.0921C77.2144 11.0172 77.06 12.1056 77.06 13.2366C77.06 14.3675 77.2322 15.2232 77.5757 16.1575C77.9202 17.0907 78.3933 17.8876 79.004 18.5476C79.6137 19.2066 80.3449 19.7125 81.1965 20.0811C82.0481 20.4491 83.3631 20.6377 84.0262 20.6458C84.6877 20.6458 86.0124 20.4399 86.8721 20.0811C87.7318 19.7212 88.463 19.2066 89.0743 18.5476C89.684 17.8876 90.1571 17.0907 90.4919 16.1575C90.8278 15.2232 90.9908 14.3675 90.9908 13.2366C90.9908 12.1056 90.8105 11.0172 90.4492 10.0921C90.1047 9.16693 89.6316 8.37864 89.0219 7.71968H89.023ZM86.6237 16.5427C86.0043 17.3913 85.1354 17.8197 84.0268 17.8197C82.917 17.8197 82.0487 17.3994 81.4293 16.5427C80.8099 15.6941 80.4999 14.7102 80.4999 13.2452C80.4999 11.7963 80.8018 10.5975 81.4212 9.74992C82.0395 8.90129 82.9084 8.48264 84.017 8.48264C85.1268 8.48264 85.9951 8.90183 86.614 9.74992C87.2334 10.5888 87.5515 11.7963 87.5515 13.2452C87.5515 14.7102 87.2426 15.686 86.6232 16.5427H86.6237ZM46.5308 5.67273C43.9193 5.67273 41.6215 7.04563 40.2801 9.12652C39.496 10.3432 39.0386 11.8006 39.0386 13.3686C39.0386 15.7873 40.1257 17.9442 41.8246 19.3548C41.9828 19.4949 42.1513 19.6231 42.3273 19.7395C43.0218 20.1969 43.8453 20.4653 44.7315 20.4653C44.7979 20.4653 44.8643 20.4636 44.9302 20.4604C44.9497 20.4593 44.9686 20.4577 44.988 20.4566C45.035 20.4539 45.0825 20.4507 45.1295 20.4459C45.1478 20.4442 45.1662 20.4416 45.1846 20.4394C45.2337 20.434 45.2828 20.4281 45.332 20.4211C45.3433 20.4195 45.3547 20.4173 45.366 20.4157C47.1421 20.1425 48.6904 18.7551 49.1947 17.0314V20.1474C49.1947 20.323 49.3373 20.4653 49.5134 20.4653H52.2361C52.4122 20.4653 52.5547 20.323 52.5547 20.1474V5.99063C52.5547 5.81498 52.4122 5.67273 52.2361 5.67273H46.5308ZM49.1947 16.8218C48.5359 17.3692 47.6843 17.5751 46.7733 17.6365C46.7647 17.637 46.7555 17.6381 46.7468 17.6387C46.6864 17.6424 46.6259 17.644 46.5654 17.644C44.2844 17.644 42.4008 15.7102 42.4008 13.3675C42.4008 12.8152 42.5066 12.2893 42.6935 11.806C43.2994 10.237 44.7871 9.12598 46.5308 9.12598H49.1947V16.8218ZM113.469 5.67273C110.858 5.67273 108.56 7.04563 107.218 9.12652C106.434 10.3432 105.977 11.8006 105.977 13.3686C105.977 15.7873 107.064 17.9442 108.763 19.3548C108.921 19.4949 109.09 19.6231 109.266 19.7395C109.96 20.1969 110.784 20.4653 111.67 20.4653C111.736 20.4653 111.803 20.4636 111.869 20.4604C111.888 20.4593 111.907 20.4577 111.926 20.4566C111.973 20.4539 112.021 20.4507 112.068 20.4459C112.086 20.4442 112.105 20.4416 112.123 20.4394C112.172 20.434 112.221 20.4281 112.27 20.4211C112.282 20.4195 112.293 20.4173 112.304 20.4157C114.08 20.1425 115.629 18.7551 116.133 17.0314V20.1474C116.133 20.323 116.276 20.4653 116.452 20.4653H119.174C119.351 20.4653 119.493 20.323 119.493 20.1474V5.99063C119.493 5.81498 119.351 5.67273 119.174 5.67273H113.469ZM116.133 16.8218C115.474 17.3692 114.623 17.5751 113.712 17.6365C113.703 17.637 113.694 17.6381 113.685 17.6387C113.625 17.6424 113.564 17.644 113.504 17.644C111.223 17.644 109.339 15.7102 109.339 13.3675C109.339 12.8152 109.445 12.2893 109.632 11.806C110.238 10.237 111.725 9.12598 113.469 9.12598H116.133V16.8218ZM71.8558 5.67273H69.1919C66.5803 5.67273 64.2826 7.04563 62.9412 9.12652C62.3045 10.1147 61.8827 11.2624 61.7472 12.4989C61.683 13.0851 61.6839 13.6765 61.7499 14.2625C61.981 16.3148 62.9995 18.1209 64.4856 19.3553C64.6438 19.4954 64.8123 19.6236 64.9884 19.74C65.6828 20.1975 66.5064 20.4658 67.3925 20.4658C68.364 20.4658 69.2616 20.1463 69.9933 19.6053C70.873 18.9814 71.5528 18.0676 71.8553 17.0325V19.7406H71.8493V20.3376C71.8493 21.5143 71.541 22.3996 70.9129 22.9971C70.286 23.5941 69.2367 23.8932 67.7673 23.8932C67.1668 23.8932 66.2126 23.8614 65.2508 23.7633C65.098 23.7477 64.956 23.8441 64.9122 23.9907L64.2221 26.3135C64.167 26.4999 64.2907 26.6918 64.4829 26.7192C65.645 26.8852 66.7791 26.9714 67.4341 26.9714C70.0754 26.9714 72.0329 26.3922 73.3144 25.2359C74.4743 24.1901 75.1046 22.6016 75.2153 20.4663V5.99171C75.2153 5.81606 75.0727 5.67381 74.8966 5.67381H71.8553L71.8558 5.67273ZM71.8558 9.12652C71.8558 9.12652 71.8909 16.623 71.8558 16.8509C71.2035 17.3773 70.3918 17.5832 69.5073 17.643C69.4986 17.6435 69.4894 17.6446 69.4808 17.6451C69.4203 17.6489 69.3598 17.6505 69.2993 17.6505C69.2281 17.6505 69.1573 17.6489 69.0866 17.6451C66.9044 17.5314 65.0624 15.6375 65.0624 13.368C65.0624 12.8158 65.1682 12.2899 65.355 11.8066C65.9609 10.2375 67.4487 9.12652 69.1924 9.12652H71.8563H71.8558Z" fill="#090909"/>
<path d="M14.3856 0.0297641C7.01275 0.0297641 1.00234 5.961 0.895954 13.2926C0.78795 20.7384 6.84265 26.9084 14.3063 26.9515C16.6111 26.9649 18.8311 26.4024 20.8027 25.3334C20.9949 25.2294 21.0246 24.9654 20.861 24.821L19.5984 23.7046C19.3419 23.4778 18.9769 23.4136 18.661 23.5473C17.285 24.1313 15.7897 24.4298 14.2485 24.411C8.21754 24.3372 3.34494 19.3305 3.44107 13.3136C3.53611 7.37268 8.40924 2.56918 14.3856 2.56918H25.3313V21.9809L19.1211 16.4754C18.9202 16.297 18.6124 16.332 18.4504 16.5459C17.4535 17.8628 15.8296 18.6818 14.026 18.5579C11.5241 18.3854 9.49684 16.3757 9.30946 13.8804C9.08535 10.9041 11.4496 8.41044 14.3856 8.41044C17.0415 8.41044 19.2285 10.4498 19.457 13.0415C19.4775 13.2721 19.5817 13.4871 19.7551 13.6407L21.3724 15.0712C21.556 15.2334 21.8471 15.1343 21.8924 14.8934C22.0091 14.2711 22.0501 13.6229 22.0042 12.958C21.7439 9.168 18.6669 6.11887 14.8668 5.88557C10.5099 5.61778 6.86749 9.01822 6.75192 13.2808C6.63906 17.435 10.0504 21.0159 14.2145 21.1075C15.9528 21.1458 17.5642 20.6005 18.8662 19.6554L26.9805 26.8324C27.3283 27.1401 27.8775 26.8938 27.8775 26.4299V0.53948C27.8775 0.257143 27.6485 0.0286865 27.3655 0.0286865H14.3856V0.0297641Z" fill="#090909"/>
</g>
</svg>
