<svg width="119" height="27" viewBox="0 0 119 27" fill="none" xmlns="http://www.w3.org/2000/svg">
<path opacity="0.9" fill-rule="evenodd" clip-rule="evenodd" d="M24.1837 26.9711H25.8237C26.2037 26.9711 26.5237 26.6546 26.5437 26.2788V8.61376C26.5437 6.87299 25.1237 5.4685 23.3639 5.4685H21.2639C20.8839 5.4685 20.564 5.15199 20.564 4.77615V3.17383C20.564 1.43306 19.144 0.0285645 17.3842 0.0285645H3.80484C2.04492 0.0285645 0.625 1.43306 0.625 3.17383V20.9179C0.625 22.6389 2.04492 24.0434 3.80484 24.0632H19.544C19.684 24.0632 19.824 24.1027 19.944 24.1819L23.7838 26.8524C23.9037 26.9315 24.0437 26.9711 24.1837 26.9711ZM20.364 21.551H3.84484C3.44485 21.551 3.14487 21.2542 3.14487 20.8585V3.2134C3.14487 2.83755 3.46485 2.52105 3.84484 2.52105H17.3442C17.7241 2.52105 18.0441 2.83755 18.0441 3.2134V4.77615C18.0441 5.15199 17.7241 5.4685 17.3442 5.4685H7.28465C6.90468 5.4685 6.58469 5.78501 6.58469 6.16086V17.9309C6.58469 18.3068 6.90468 18.6233 7.28465 18.6233H19.844C20.224 18.6233 20.544 18.3068 20.544 17.9309V8.65333C20.544 8.27748 20.8639 7.96098 21.2439 7.96098H23.3039C23.6839 7.96098 24.0037 8.27748 24.0037 8.65333V23.0938C24.0037 23.45 23.6039 23.6478 23.3239 23.45L20.7639 21.6696C20.644 21.5905 20.504 21.551 20.364 21.551ZM17.6841 16.111H9.44454C9.26455 16.111 9.10456 15.9725 9.10456 15.7747V8.29726C9.10456 8.11924 9.24455 7.96098 9.44454 7.96098H17.6841C17.8641 7.96098 18.0241 8.09945 18.0241 8.29726V15.7747C18.0241 15.9527 17.8841 16.111 17.6841 16.111ZM90.245 3.78994C91.2952 3.78994 92.1464 2.94792 92.1464 1.90925C92.1464 0.870575 91.2952 0.0285645 90.245 0.0285645C89.195 0.0285645 88.3437 0.870575 88.3437 1.90925C88.3437 2.94792 89.195 3.78994 90.245 3.78994ZM68.5548 6.5392V5.49437H65.4916V18.5198H68.5548V9.62144L72.1287 8.15867V5.11127H72.0934L68.5548 6.5392ZM56.6864 5.48271C54.697 5.48271 53.0773 6.12702 51.845 7.43305C51.2816 8.04253 50.8415 8.73908 50.5246 9.55753C50.2253 10.3586 50.0669 11.2119 50.0669 12.0999C50.0669 13.9284 50.595 15.4434 51.6689 16.6101C52.8485 17.8987 54.4682 18.5256 56.5279 18.5256C58.5349 18.5256 60.137 17.8813 61.3518 16.5753C62.4961 15.3389 63.077 13.789 63.077 11.9083C63.077 10.0277 62.5137 8.51271 61.4045 7.32857C60.2251 6.09219 58.6581 5.48271 56.6864 5.48271ZM59.0807 14.7468C58.4997 15.4608 57.6899 15.8265 56.6687 15.8265C55.5773 15.8265 54.6793 15.4608 54.0104 14.7294C53.6935 14.3986 53.447 13.9806 53.271 13.5105C53.0949 13.0402 53.0069 12.5527 53.0069 12.0303C53.0069 10.9855 53.2886 10.1148 53.8695 9.38339C54.5034 8.59978 55.366 8.19925 56.4751 8.19925C57.5667 8.19925 58.4293 8.56495 59.0455 9.31373C59.6264 10.0103 59.9257 10.9158 59.9257 12.0477C59.9433 13.1448 59.6616 14.0503 59.0807 14.7468ZM88.6933 5.49663H91.739V18.5395H88.6933V5.49663ZM42.2173 5.48271C40.4743 5.48271 39.0483 5.98771 37.9392 6.99771C36.9005 7.95547 36.3724 9.15701 36.3724 10.6024C36.3724 11.8909 36.8301 12.9532 37.7456 13.8064C36.9534 14.4334 36.566 15.1822 36.566 16.0702C36.566 16.6101 36.6365 17.0803 36.7597 17.4808C36.8829 17.8987 37.1294 18.247 37.5168 18.5605C36.1435 19.3092 35.4745 20.5282 35.5274 22.1999C35.5625 23.6452 36.1964 24.7945 37.4287 25.6652C38.6611 26.536 40.2983 26.9713 42.3053 26.9713C44.3123 26.9713 45.8087 26.5882 46.8299 25.822C47.8509 25.0558 48.3614 23.9587 48.3614 22.5133C48.3614 21.0854 47.9566 19.971 47.1467 19.1873C46.7065 18.7694 46.1432 18.4385 45.4566 18.1425C44.7524 17.8639 43.8017 17.6201 42.5694 17.4286C41.337 17.237 40.4568 17.028 39.9286 16.7668C39.6821 16.6624 39.5237 16.5405 39.4533 16.4185C39.3828 16.2967 39.3476 16.1225 39.3476 15.8961C39.3476 15.6697 39.5061 15.3563 39.8053 14.9558C40.4919 15.1822 41.249 15.304 42.0589 15.304C43.7137 15.304 45.0693 14.8165 46.1432 13.8239C46.6186 13.3711 46.9883 12.8313 47.2523 12.2218C47.5164 11.6124 47.6397 10.9332 47.6397 10.1844C47.6397 9.43564 47.4636 8.72167 47.1115 8.05995C47.1115 8.05995 47.1115 8.04253 47.0939 8.04253H48.379V5.48271H42.2173ZM40.0871 19.5704L40.7208 19.6749C42.4989 19.9361 43.7665 20.2844 44.4883 20.7546C45.1397 21.1551 45.4566 21.6949 45.4566 22.3567C45.4566 23.7497 44.4531 24.4288 42.4461 24.4288C41.2666 24.4288 40.3159 24.1851 39.5765 23.7149C39.242 23.506 38.978 23.2447 38.8019 22.9487C38.6082 22.6527 38.5202 22.3218 38.5202 21.9213C38.5202 21.5208 38.6435 21.1028 38.8899 20.6675C39.1539 20.2147 39.5589 19.8664 40.0871 19.5704ZM43.9249 12.0999C43.432 12.5353 42.8511 12.7617 42.1997 12.7617C41.3194 12.7617 40.6153 12.5179 40.0695 12.0303C39.8229 11.8213 39.6469 11.5601 39.5061 11.2989C39.3828 11.0203 39.3125 10.7416 39.3125 10.4457C39.3125 10.1496 39.3652 9.85357 39.4884 9.55753C39.8758 8.56495 40.7385 8.07736 42.094 8.07736C42.9039 8.07736 43.5553 8.28633 44.013 8.70426C44.4707 9.12219 44.7171 9.67942 44.7171 10.3586C44.6996 11.0203 44.4355 11.6124 43.9249 12.0999ZM105.189 8.32115C105.418 8.91322 105.541 9.60977 105.541 10.3586V18.4908H102.548V17.8813C101.65 18.2818 100.823 18.4908 100.066 18.4908C99.115 18.4908 98.3228 18.4037 97.6538 18.2296C96.9848 18.0554 96.4215 17.7942 95.9638 17.4634C95.0306 16.7668 94.5553 15.7743 94.5553 14.4856C94.5553 13.3363 95.1187 12.3612 96.2807 11.595C97.5306 10.759 99.2383 10.3412 101.386 10.3412L101.879 10.3586C101.93 10.3586 101.981 10.3626 102.033 10.3668C102.09 10.3713 102.15 10.376 102.214 10.376C102.273 10.3843 102.328 10.3887 102.381 10.3928C102.438 10.3974 102.493 10.4017 102.548 10.4108C102.478 9.12218 101.914 8.35598 100.858 8.14702C100.523 8.07736 100.136 8.04253 99.7488 8.04253C99.3439 8.04253 98.9566 8.07736 98.5869 8.14702C98.1996 8.21667 97.8299 8.32115 97.4777 8.42563C96.7031 8.66943 96.1222 8.96546 95.7877 9.27891L95.7525 9.26149L95.3828 6.59719C96.8088 5.84841 98.3933 5.48271 100.101 5.48271C102.759 5.48271 104.449 6.42306 105.189 8.32115ZM102.548 15.4086V12.6049C102.319 12.5701 102.09 12.5527 101.861 12.5527H101.369C99.5728 12.5527 98.4285 12.9532 97.9356 13.7368C97.7946 13.9632 97.7243 14.207 97.7243 14.4682C97.7243 14.7294 97.7771 14.9558 97.8651 15.1474C97.9707 15.3389 98.1291 15.513 98.3404 15.6349C98.763 15.8787 99.3968 16.0006 100.224 16.0006C101.052 16.0006 101.826 15.7917 102.548 15.4086ZM116.793 11.2467C117.304 11.4904 117.725 11.7865 118.043 12.1348C118.624 12.7617 118.923 13.5975 118.923 14.6772C118.923 15.8091 118.465 16.732 117.55 17.446C116.599 18.1948 115.261 18.5605 113.536 18.5605C111.458 18.5605 109.839 18.2122 108.695 17.533V14.3289C108.695 14.3115 108.765 14.3812 108.888 14.5204C109.012 14.6598 109.258 14.8165 109.592 15.0255C109.927 15.2344 110.332 15.4086 110.772 15.5653C111.74 15.8962 112.743 16.0528 113.8 16.0528C115.208 16.0528 115.913 15.5827 115.913 14.6598C115.913 14.3637 115.772 14.1373 115.508 13.998C115.032 13.7542 114.328 13.5627 113.395 13.4408C112.462 13.3015 111.705 13.1274 111.106 12.8836C110.508 12.6397 110.015 12.3437 109.645 12.0129C108.959 11.3686 108.606 10.5327 108.606 9.50528C108.606 8.2515 109.1 7.25892 110.068 6.54495C111.036 5.83099 112.374 5.48271 114.082 5.48271C115.772 5.48271 117.216 5.95288 118.412 6.91064C118.36 7.11952 118.307 7.32864 118.236 7.52012C118.043 8.05995 117.902 8.44305 117.814 8.66942L117.533 9.38339C117.515 9.45304 117.497 9.48787 117.497 9.48787C117.48 9.48787 117.409 9.40081 117.304 9.22667C116.793 8.6346 115.982 8.2515 114.909 8.05995C114.574 7.99029 114.241 7.95547 113.888 7.95547C112.409 7.95547 111.67 8.39081 111.67 9.27891C111.67 9.57494 111.811 9.81874 112.128 9.97546C112.708 10.2889 113.501 10.5153 114.504 10.6546C115.508 10.8113 116.264 11.0029 116.793 11.2467ZM79.732 5.48271C77.9891 5.48271 76.5631 5.98771 75.454 6.99771C74.4153 7.95547 73.8871 9.15701 73.8871 10.6024C73.8871 11.8909 74.3449 12.9532 75.2603 13.8064C74.4681 14.4334 74.0808 15.1822 74.0808 16.0702C74.0808 16.6101 74.1512 17.0803 74.2744 17.4808C74.3976 17.8987 74.6442 18.247 75.0314 18.5605C73.6583 19.3092 72.9893 20.5282 73.042 22.1999C73.0772 23.6452 73.711 24.7945 74.9434 25.6652C76.1757 26.536 77.813 26.9713 79.82 26.9713C81.827 26.9713 83.3235 26.5882 84.3445 25.822C85.3656 25.0558 85.8762 23.9587 85.8762 22.5133C85.8762 21.0854 85.4712 19.971 84.6614 19.1873C84.2213 18.7694 83.658 18.4385 82.9714 18.1425C82.2671 17.8639 81.3165 17.6201 80.0841 17.4286C78.8518 17.237 77.9715 17.028 77.4434 16.7668C77.1969 16.6624 77.0384 16.5405 76.968 16.4185C76.8976 16.2967 76.8624 16.1225 76.8624 15.8961C76.8624 15.6697 77.0208 15.3563 77.3201 14.9558C78.0067 15.1822 78.7638 15.304 79.5736 15.304C81.2284 15.304 82.584 14.8165 83.658 13.8239C84.1333 13.3711 84.5029 12.8313 84.7671 12.2218C85.0311 11.6124 85.1543 10.9332 85.1543 10.1844C85.1543 9.43564 84.9784 8.72167 84.6263 8.05995C84.6263 8.05995 84.6263 8.04253 84.6086 8.04253H85.8938V5.48271H79.732ZM77.6018 19.5704L78.2356 19.6749C80.0137 19.9361 81.2812 20.2844 82.0031 20.7546C82.6545 21.1551 82.9714 21.6949 82.9714 22.3567C82.9714 23.7497 81.9679 24.4288 79.9609 24.4288C78.7813 24.4288 77.8306 24.1851 77.0913 23.7149C76.7568 23.506 76.4926 23.2447 76.3166 22.9487C76.123 22.6527 76.0349 22.3218 76.0349 21.9213C76.0349 21.5208 76.1581 21.1028 76.4046 20.6675C76.6687 20.2147 77.0736 19.8664 77.6018 19.5704ZM81.4397 12.0999C80.9467 12.5353 80.3658 12.7617 79.7144 12.7617C78.8341 12.7617 78.1299 12.5179 77.5842 12.0303C77.3377 11.8213 77.1616 11.5601 77.0208 11.2989C76.8976 11.0203 76.8271 10.7416 76.8271 10.4457C76.8271 10.1496 76.88 9.85357 77.0032 9.55753C77.3905 8.56495 78.2532 8.07736 79.6087 8.07736C80.4186 8.07736 81.07 8.28633 81.5278 8.70426C81.9855 9.12219 82.2319 9.67942 82.2319 10.3586C82.2143 11.0203 81.9502 11.6124 81.4397 12.0999Z" fill="#090909"/>
</svg>
