<svg width="120" height="36" viewBox="0 0 120 36" fill="none" xmlns="http://www.w3.org/2000/svg">
<g opacity="0.9">
<path d="M67.9993 7.42615C68.628 7.42953 69.2332 7.18595 69.686 6.74728C70.137 6.31036 70.3987 5.71221 70.4141 5.08255C70.4067 4.44416 70.1498 3.83435 69.699 3.38485C69.2464 2.93345 68.6367 2.67722 67.9993 2.67055C67.3708 2.68526 66.7728 2.94618 66.3327 3.39776C65.8946 3.84754 65.6504 4.45289 65.6531 5.08255C65.6585 5.70345 65.9075 6.29706 66.3459 6.73417C66.7861 7.17312 67.3795 7.42134 67.9993 7.42615ZM84.4085 9.67964H90.2326V10.1412C89.9099 10.1981 89.598 10.3057 89.3086 10.4603C88.7762 10.7091 87.7113 11.9151 86.8938 13.9362C85.5094 17.4479 84.0548 21.5961 82.528 26.35L81.9595 28.1528C81.7105 28.9676 81.4975 29.4995 81.391 29.8204C81.2845 30.1413 81.1418 30.6352 80.8946 31.2373C80.7536 31.6903 80.5724 32.1295 80.3532 32.5498C80.0679 33.0816 79.5355 34.1723 79.1097 34.5004C78.4346 35.0683 77.4401 35.7064 76.1985 35.6001C73.7837 35.6001 71.9734 33.7974 71.9373 31.6647C71.9373 30.2097 72.8613 29.2525 74.2457 29.2525C75.2401 29.2525 76.1262 29.7934 76.1262 30.9183C76.1262 31.735 75.3105 32.5858 75.3105 33.0114C75.3105 34.1109 75.9495 34.6337 77.1929 34.6337C78.1855 34.6337 78.9977 33.9956 79.6059 32.7192C80.4236 31.2643 80.4939 29.669 79.8189 27.895L74.7077 14.383C73.5347 11.2627 72.6467 10.2369 71.5474 10.1269V9.6651H79.6059V10.1265C78.6475 10.233 78.1513 10.8009 78.1513 11.8283C78.1513 12.5729 78.4346 13.7087 78.967 15.1635L79.9254 17.7868C81.0263 20.6242 81.9106 23.1066 82.3763 24.6679C83.4051 21.4409 84.3617 18.6033 85.2875 16.1209C85.9625 14.2765 86.2819 12.9642 86.2819 12.1836C86.2819 10.8009 85.5365 10.1627 84.3996 10.1627L84.4085 9.67964ZM28.3439 26.9521C27.3153 26.7719 26.4273 25.8524 26.4273 23.9018V0.388184L20.5688 1.66463V2.16227C21.5633 2.05578 22.554 2.94087 22.554 4.82124V23.9018C22.554 25.7461 21.5596 26.8098 20.5688 26.9521C20.4758 26.9685 20.3815 26.98 20.2872 26.9863C19.7802 27.0212 19.2723 26.9315 18.8074 26.725C18.0204 26.3824 17.3636 25.7713 16.8075 24.8592L14.1005 20.5324C13.5295 19.6198 12.6809 18.917 11.6808 18.5286C10.6783 18.1386 9.5779 18.0826 8.5415 18.369L11.5953 14.9998C13.9018 12.4472 16.0334 10.8156 18.0565 10.1414V9.67944H11.3391V10.141C13.0788 10.8152 12.9723 12.3044 10.9781 14.648L6.68273 19.6469V0.388184L0.824219 1.66463V2.16227C1.81866 2.16227 2.80943 3.15365 2.80943 4.89148V23.9018C2.80943 25.9949 1.85123 26.8098 0.824219 26.9521V27.4137H8.60645V26.9521C7.32879 26.7719 6.68986 25.7822 6.68986 23.9018V20.3917L8.35743 18.5476L12.3967 25.1782C13.3551 26.7754 14.243 27.4137 15.6634 27.4137H29.1814V27.0531C29.1814 27.0531 28.7951 27.026 28.3439 26.9521ZM44.472 24.7095V16.7772C44.3942 11.5907 42.2176 9.22911 37.2328 9.22911C35.6413 9.21669 34.0916 9.74085 32.8309 10.7179C31.517 11.7113 30.8781 12.8471 30.8781 14.1596C30.8781 15.436 31.5875 16.3932 32.7586 16.3932C34.0023 16.3932 34.8902 15.6847 34.8902 14.6914C34.8902 13.9468 34.392 12.9176 34.392 12.209C34.392 10.9309 35.3522 9.83119 37.0198 9.83119C39.1514 9.83119 40.6765 11.4285 40.6765 14.9744V17.1018L38.9022 17.5271C37.9782 17.7074 37.1986 17.8878 36.5938 18.068C35.9893 18.2482 35.2097 18.4935 34.2855 18.8468C32.4392 19.5572 31.4466 20.2314 30.593 21.5078C30.1751 22.1247 29.9524 22.8543 29.9541 23.6008C29.9541 26.5429 32.0132 27.8915 34.8902 27.8915C37.1623 27.8915 39.5827 26.6853 40.6765 24.4156C40.6921 25.1315 40.8638 25.8354 41.18 26.478C42.3837 28.9117 46.3707 27.4731 46.3707 27.4731V27.0117C44.6253 27.2839 44.4809 25.2106 44.472 24.7095ZM40.6818 22.2541C40.6818 23.424 40.2558 24.3814 39.4041 25.0556C38.5882 25.7299 37.7363 26.085 36.8484 26.085C35.1085 26.085 33.9715 24.9493 33.9715 22.8561C33.9715 21.8648 34.5129 20.9416 34.966 20.4099C35.325 20.0426 35.7461 19.7422 36.2094 19.5228C36.8123 19.2037 37.1118 19.0397 37.5233 18.8486L39.1477 18.2466C39.9634 17.9275 40.4598 17.7508 40.6728 17.6445L40.6818 22.2541ZM119.122 9.67964H105.314V0.388184H119.122L116.224 5.03402L119.122 9.67964ZM91.054 25.1565C90.2044 24.2837 89.5345 23.2507 89.0826 22.1169C88.6308 20.9832 88.4058 19.7708 88.4207 18.5494C88.402 17.3338 88.6252 16.1267 89.0771 14.999C89.5301 13.8695 90.2021 12.8419 91.054 11.9763C92.7957 10.1304 94.9289 9.20556 97.4195 9.20556C99.8722 9.20556 102.007 10.1304 103.749 11.9763C104.613 12.835 105.294 13.8606 105.754 14.9912C106.212 16.1199 106.437 17.3305 106.416 18.5494C106.434 19.7731 106.207 20.9878 105.749 22.1216C105.291 23.2573 104.61 24.2892 103.749 25.1565C102.007 26.9593 99.8722 27.8915 97.4195 27.8915C94.9289 27.8915 92.7957 26.9683 91.054 25.1565ZM100.619 12.2721C99.9174 10.9002 98.995 10.0962 97.9122 9.87972C95.7159 9.4382 93.7738 11.6933 93.0502 15.2792C92.7413 16.8876 92.6665 18.5327 92.8281 20.1628C92.9871 21.7942 93.4409 23.3827 94.1672 24.8502C94.8711 26.2239 95.7916 27.026 96.8744 27.2423C99.071 27.684 101.069 25.3333 101.798 21.7114C102.403 18.6846 102.096 14.998 100.61 12.2702L100.619 12.2721Z" fill="#090909"/>
<path d="M70.0586 23.9018V9.67964H57.5603V10.107C59.2297 10.3559 60.0238 11.6143 59.266 13.6548C55.3603 24.2587 55.6093 23.7828 55.3603 24.6337C55.1113 23.817 54.5426 21.8107 53.6204 19.2938C52.6981 16.7772 52.0936 15.108 51.8445 14.3634C50.8861 11.4193 51.2056 10.3196 52.7685 10.1431V9.68149H44.6721V10.1431C45.8795 10.3919 46.9444 11.7744 47.8324 14.2569L49.0758 17.4839C50.4421 20.9705 52.0467 25.7766 52.5826 27.4156H55.2736C56.1399 24.8915 59.616 14.8194 60.0816 13.7955C60.5833 12.629 61.1518 11.7455 61.7873 11.1345C62.0944 10.8052 62.4677 10.5453 62.8823 10.3722C63.2978 10.1987 63.7451 10.1156 64.1948 10.1285C64.1948 10.1285 66.1458 10.1285 66.1458 12.0089V23.9018C66.1458 25.885 65.1874 26.8098 64.193 26.9521V27.4137H71.9339V26.9521C70.9105 26.8098 70.0586 25.8884 70.0586 23.9018Z" fill="#090909"/>
</g>
</svg>
