<svg width="159" height="39" viewBox="0 0 159 39" fill="none" xmlns="http://www.w3.org/2000/svg">
<g opacity="0.9" filter="url(#filter0_d_1016_4314)">
<path fill-rule="evenodd" clip-rule="evenodd" d="M34.1419 15.4999C34.1419 23.7695 27.4381 30.4732 19.1686 30.4732C10.8991 30.4732 4.19531 23.7695 4.19531 15.4999C4.19531 7.23039 10.8991 0.526611 19.1686 0.526611C27.4381 0.526611 34.1419 7.23039 34.1419 15.4999ZM13.1766 21.4239H20.5977C20.7116 21.4239 20.7686 21.2818 20.7116 21.1824L14.7149 13.7532C14.6294 13.6538 14.487 13.6964 14.4585 13.81L13.0199 21.2392C13.0056 21.3387 13.0769 21.4239 13.1766 21.4239ZM13.0371 10.2097H20.4582C20.5579 10.2097 20.6291 10.2949 20.6149 10.3944L19.1762 17.8236C19.1477 17.9373 19.0053 17.9799 18.9198 17.8805L12.9231 10.437C12.8519 10.3518 12.9089 10.2097 13.0371 10.2097ZM21.2127 10.3234C21.2269 10.2665 21.2839 10.2097 21.3551 10.2097H26.6966C26.7821 10.2097 26.8676 10.2949 26.8533 10.3802L25.8562 15.2099C25.842 15.2809 25.785 15.3235 25.7138 15.3235H25.5572C22.922 15.3235 20.8281 12.8944 21.2127 10.3234Z" fill="#090909"/>
<path d="M45.1926 9.16715H50.5262C50.7762 9.16715 50.9429 9.30605 50.8874 9.58384L50.5818 11.3061C51.6374 9.7783 53.1653 8.86158 54.7209 8.86158C55.4987 8.86158 56.3321 9.16715 56.7766 9.58384C57.0266 9.83385 57.0266 9.97275 56.8599 10.2228L55.3043 12.4173C55.1098 12.6951 54.9709 12.6673 54.6653 12.5284C54.3598 12.3895 53.9709 12.2784 53.5542 12.2784C51.693 12.2784 50.1373 13.5007 49.4151 17.1954L48.3317 22.779C48.2483 23.1401 47.9705 23.2235 47.8316 23.2235H44.9981C44.7759 23.2235 44.5815 23.029 44.637 22.779L46.7482 12.0562L44.9704 9.55606C44.8315 9.36161 44.9426 9.16715 45.1926 9.16715Z" fill="#090909"/>
<path d="M55.4142 16.0842C56.1365 11.7228 59.3311 8.86158 63.498 8.86158C67.7204 8.86158 69.7205 12.2229 69.1094 15.8897C68.9705 16.8342 68.6371 17.5843 67.8593 17.5843H58.8588C58.9422 19.6399 60.3589 20.6122 62.2479 20.6122C63.498 20.6122 64.6647 20.14 65.5536 19.5566C65.7759 19.3899 66.0259 19.3066 66.1926 19.5566L67.2204 21.1678C67.3871 21.4178 67.3037 21.5845 67.0537 21.8067C65.7203 23.029 63.5535 23.5846 61.5812 23.5846C57.1365 23.5846 54.7197 20.3066 55.4142 16.0842ZM65.887 15.1397C66.0259 12.9451 64.5258 12.0284 63.0813 12.0284C61.1923 12.0284 59.72 13.3063 59.1644 15.1397H65.887Z" fill="#090909"/>
<path d="M82.5548 22.8902L85.7772 6.44483L84.1938 4.33361C84.1105 4.19471 84.2216 4.00025 84.416 4.00025H89.3607C89.6385 4.00025 89.7774 4.16693 89.7219 4.41694L88.2773 11.6673C89.3885 10.0006 91.0553 8.86163 92.9998 8.86163C96.1111 8.86163 97.889 11.5284 97.2223 14.8064L95.6111 22.779C95.5555 23.0846 95.3055 23.2235 95.1111 23.2235H92.1942C91.9164 23.2235 91.7775 23.0568 91.8331 22.779L93.2776 15.5842C93.6665 13.6397 93.1387 12.4451 91.9442 12.4451C89.7219 12.4451 87.9718 14.9453 87.2217 18.4733L86.2772 22.8902C86.2495 23.0568 86.1106 23.2235 85.9161 23.2235H82.8326C82.6659 23.2235 82.527 23.0568 82.5548 22.8902Z" fill="#090909"/>
<path d="M98.2235 16.2509C98.9457 11.6117 102.224 8.86158 106.057 8.86158C108.085 8.86158 109.668 9.7783 110.279 11.3061L110.613 9.61162C110.668 9.30605 110.891 9.16715 111.141 9.16715H113.835C114.141 9.16715 114.252 9.36161 114.196 9.61162L111.613 22.8068C111.557 23.0568 111.391 23.2235 111.085 23.2235H108.363C108.113 23.2235 107.974 23.0846 108.029 22.8068L108.279 21.4456C107.001 22.8901 105.418 23.6124 103.696 23.6124C99.7791 23.6124 97.5845 20.3622 98.2235 16.2509ZM104.807 20.2511C107.057 20.2511 108.724 18.3621 109.057 16.1397C109.39 13.9174 108.196 12.2506 106.112 12.2506C103.89 12.2506 102.279 14.0563 101.918 16.1675C101.557 18.3065 102.64 20.2511 104.807 20.2511Z" fill="#090909"/>
<path d="M113.363 22.779L115.975 9.52828C116.03 9.30605 116.141 9.16715 116.308 9.16715H119.252C119.503 9.16715 119.669 9.30605 119.614 9.58384L119.308 11.3061C120.364 9.7783 121.892 8.86158 123.447 8.86158C124.225 8.86158 125.058 9.16715 125.503 9.58384C125.753 9.83385 125.753 9.97275 125.586 10.2228L124.031 12.4173C123.836 12.6951 123.697 12.6673 123.392 12.5284C123.086 12.3895 122.697 12.2784 122.28 12.2784C120.419 12.2784 118.864 13.5007 118.141 17.1954L117.058 22.779C116.975 23.1401 116.697 23.2235 116.558 23.2235H113.724C113.502 23.2235 113.308 23.029 113.363 22.779Z" fill="#090909"/>
<path d="M123.059 27.2515C122.892 27.1126 122.892 26.8903 123.003 26.6959L124.309 24.6402C124.448 24.418 124.67 24.3624 124.837 24.5013C126.115 25.3069 127.365 25.8069 128.893 25.8069C131.559 25.8069 133.782 24.7235 134.56 21.14C133.087 22.529 131.726 23.1957 129.67 23.1957C125.642 23.1957 123.531 19.8066 124.198 16.0286C124.948 11.7506 128.143 8.86158 132.171 8.86158C134.393 8.86158 135.921 10.1116 136.393 11.1395L136.726 9.61162C136.782 9.30605 136.976 9.16715 137.199 9.16715H139.921C140.199 9.16715 140.338 9.33383 140.282 9.61162L138.004 21.2234C137.004 26.2792 133.504 28.9182 128.754 28.9182C126.754 28.9182 124.503 28.4182 123.059 27.2515ZM130.726 19.9455C132.976 19.9455 134.643 18.1399 134.976 16.0008C135.31 13.8618 134.115 12.2506 132.032 12.2506C129.809 12.2506 128.198 14.0007 127.837 16.0286C127.476 18.0843 128.559 19.9455 130.726 19.9455Z" fill="#090909"/>
<path d="M140.392 16.0842C141.115 11.7228 144.309 8.86158 148.476 8.86158C152.699 8.86158 154.699 12.2229 154.088 15.8897C153.949 16.8342 153.615 17.5843 152.838 17.5843H143.837C143.92 19.6399 145.337 20.6122 147.226 20.6122C148.476 20.6122 149.643 20.14 150.532 19.5566C150.754 19.3899 151.004 19.3066 151.171 19.5566L152.199 21.1678C152.365 21.4178 152.282 21.5845 152.032 21.8067C150.699 23.029 148.532 23.5846 146.559 23.5846C142.115 23.5846 139.698 20.3066 140.392 16.0842ZM150.865 15.1397C151.004 12.9451 149.504 12.0284 148.059 12.0284C146.171 12.0284 144.698 13.3063 144.143 15.1397H150.865Z" fill="#090909"/>
<path d="M76.3421 23.6124C78.2033 23.6124 80.0367 23.0846 81.7035 21.5011C81.9535 21.2789 81.9813 20.9733 81.8146 20.8067L80.2867 19.1121C80.1478 18.9455 79.9256 18.9455 79.7311 19.0843C79.0922 19.5566 78.0644 20.1122 76.8421 20.1122C74.6475 20.1122 73.4252 18.3899 73.703 16.2231C73.9808 14.0841 75.6754 12.3618 77.8144 12.3618C78.9811 12.3618 79.7311 12.7784 80.5645 13.6118C80.7867 13.8341 80.9256 13.8341 81.1757 13.6396L83.148 11.9451C83.3424 11.7784 83.398 11.5839 83.2591 11.3617C82.0646 9.66718 80.2034 8.86158 78.1477 8.86158C74.0086 8.86158 70.6473 11.9451 70.0917 16.0286C69.4806 20.4733 72.4252 23.6124 76.3421 23.6124Z" fill="#090909"/>
</g>
<defs>
<filter id="filter0_d_1016_4314" x="0.195312" y="0.526611" width="158" height="37.9465" filterUnits="userSpaceOnUse" color-interpolation-filters="sRGB">
<feFlood flood-opacity="0" result="BackgroundImageFix"/>
<feColorMatrix in="SourceAlpha" type="matrix" values="0 0 0 0 0 0 0 0 0 0 0 0 0 0 0 0 0 0 127 0" result="hardAlpha"/>
<feOffset dy="4"/>
<feGaussianBlur stdDeviation="2"/>
<feComposite in2="hardAlpha" operator="out"/>
<feColorMatrix type="matrix" values="0 0 0 0 0 0 0 0 0 0 0 0 0 0 0 0 0 0 0.25 0"/>
<feBlend mode="normal" in2="BackgroundImageFix" result="effect1_dropShadow_1016_4314"/>
<feBlend mode="normal" in="SourceGraphic" in2="effect1_dropShadow_1016_4314" result="shape"/>
</filter>
</defs>
</svg>
