<svg width="132" height="27" viewBox="0 0 132 27" fill="none" xmlns="http://www.w3.org/2000/svg">
<path opacity="0.9" d="M102.57 10.214C100.901 10.214 99.5319 10.7956 98.5587 11.9058L98.7467 10.9264C98.807 10.6169 98.5951 10.3552 98.2856 10.3552C97.9761 10.3552 97.6625 10.6169 97.6043 10.9264L94.7212 25.8964C94.662 26.2059 94.8729 26.4676 95.1824 26.4676C95.4919 26.4676 95.8055 26.2059 95.8647 25.8964L96.9344 20.3369C97.3291 21.0473 98.243 22.0225 100.296 22.0225C101.902 22.0225 103.248 21.5292 104.3 20.554C105.384 19.5486 106.125 18.0531 106.5 16.1058C106.875 14.1616 106.709 12.6681 106.01 11.67C105.335 10.7042 104.176 10.215 102.57 10.215V10.214ZM100.498 20.9735C98.0571 20.9735 97.0902 19.2911 97.704 16.1068C98.323 12.8924 99.8684 11.2629 102.298 11.2629C104.953 11.2629 105.938 12.8467 105.309 16.1068C104.67 19.4271 103.141 20.9735 100.498 20.9735ZM127.449 15.4743C126 14.9363 124.631 14.4295 124.892 13.0794C125.023 12.4012 125.573 11.2619 127.791 11.2619C129.038 11.2619 129.825 11.6067 130.507 12.4521C130.635 12.6099 130.78 12.6099 130.843 12.6099C130.99 12.6026 131.13 12.5473 131.243 12.4527C131.356 12.358 131.435 12.2291 131.468 12.0855C131.482 12.023 131.484 11.9582 131.472 11.8952C131.46 11.8322 131.436 11.7722 131.4 11.7189L131.392 11.7043C130.699 10.7146 129.556 10.2129 127.994 10.2129C125.716 10.2129 124.09 11.3107 123.748 13.0794C123.341 15.1939 125.215 15.9033 126.868 16.5274C128.296 17.0675 129.646 17.5785 129.396 18.8715C129.043 20.6994 127.128 20.9725 126.015 20.9725C124.484 20.9725 123.537 20.556 122.852 19.5787L122.845 19.5694C122.805 19.5187 122.754 19.4781 122.696 19.4506C122.637 19.4232 122.574 19.4098 122.509 19.4115C122.362 19.4191 122.222 19.4744 122.109 19.569C121.996 19.6637 121.917 19.7925 121.884 19.936C121.87 19.9985 121.868 20.0632 121.88 20.1263C121.891 20.1893 121.916 20.2493 121.951 20.3026C122.408 21.1574 123.779 22.0215 125.815 22.0215C128.393 22.0215 130.159 20.8437 130.539 18.8715C130.944 16.7705 129.086 16.0808 127.448 15.4743H127.449ZM123.992 7.2582H122.786L123.019 6.05138C123.078 5.74189 122.867 5.48017 122.557 5.48017C122.247 5.48017 121.935 5.74189 121.876 6.05138L121.643 7.2582H120.437C120.127 7.2582 119.815 7.51992 119.756 7.82941C119.696 8.13891 119.908 8.40063 120.217 8.40063H121.423L121.191 9.60744C121.131 9.91694 121.342 10.1787 121.652 10.1787C121.962 10.1787 122.274 9.91694 122.334 9.60744L122.565 8.40166H123.772C124.081 8.40166 124.393 8.13891 124.453 7.83045C124.47 7.76139 124.471 7.68935 124.456 7.61993C124.44 7.55051 124.409 7.48559 124.364 7.43021C124.32 7.37484 124.263 7.33051 124.198 7.30068C124.134 7.27084 124.063 7.25631 123.992 7.2582ZM28.2237 18.8756C28.8095 19.1799 29.8647 19.6026 30.8721 19.5787C31.786 19.5787 32.2793 19.0854 32.2793 18.4779C32.2793 17.8911 31.9273 17.4933 30.9427 16.9304C29.7245 16.2273 28.8095 15.2427 28.8095 13.9528C28.8095 11.6784 30.7558 10.0613 33.591 10.0613C34.8342 10.0613 35.7949 10.296 36.31 10.6014L35.5602 12.8987C34.9284 12.6068 34.2412 12.4545 33.5453 12.4521C32.6314 12.4521 32.0446 12.8748 32.0446 13.5312C32.0446 14.0463 32.4663 14.4223 33.2867 14.8678C34.5538 15.5948 35.6079 16.5783 35.6079 17.9627C35.6079 20.5405 33.5215 21.9934 30.6145 21.9706C29.2789 21.9467 28.0357 21.5946 27.4271 21.173L28.2237 18.8756ZM36.2643 21.9062L39.405 5.49367H42.6401L41.398 11.8549L41.4437 11.8134C42.3109 10.7821 43.4367 10.0696 44.8658 10.0696C46.5545 10.0696 47.5141 11.1549 47.5141 12.9838C47.5141 13.5467 47.4206 14.4555 47.2804 15.1596L46.0144 21.9062H42.7803L43.9986 15.3622C44.092 14.9156 44.1398 14.3402 44.1398 13.8957C44.1398 13.1926 43.8594 12.6806 43.1324 12.6806C42.1 12.6806 40.9981 14.0588 40.5765 16.193L39.4974 21.9072H36.2643V21.9062ZM59.2136 14.5625C59.2136 18.5713 56.6338 21.9934 52.8139 21.9934C49.9059 21.9934 48.3605 19.9776 48.3605 17.4694C48.3605 13.554 50.9393 10.0374 54.8298 10.0374C57.8541 10.0384 59.2136 12.2423 59.2136 14.5625ZM51.6653 17.3988C51.6653 18.5713 52.1347 19.5081 53.2366 19.5081C54.9471 19.5081 55.9089 16.461 55.9089 14.469C55.9089 13.5073 55.5329 12.5237 54.3853 12.5237C52.6259 12.5237 51.6653 15.546 51.6653 17.3988ZM58.4399 26.4655L60.6904 14.6362C60.949 13.3006 61.2056 11.5724 61.3468 10.3563H64.207L64.019 12.18H64.0658C64.933 10.9638 66.199 10.1475 67.4879 10.1475C69.8548 10.1475 70.8165 12.0377 70.8165 14.2187C70.8165 18.1569 68.3322 22.036 64.5342 22.036C63.7376 22.036 63.0106 21.9062 62.6357 21.6029H62.5651L61.674 26.4665L58.4399 26.4655ZM63.0584 19.0865C63.4104 19.3669 63.8082 19.5549 64.395 19.5549C66.2001 19.5549 67.4432 16.5783 67.4432 14.4918C67.4432 13.6246 67.1379 12.7107 66.1533 12.7107C65.0285 12.7107 63.9734 14.0473 63.5984 16.0632L63.0584 19.0865ZM70.911 21.9062L73.092 10.3573H76.35L74.1461 21.9062H70.911ZM75.1079 9.14113C74.1939 9.14113 73.5843 8.35908 73.5843 7.39737C73.5843 6.34322 74.4047 5.4594 75.436 5.4594C76.4206 5.4594 77.0531 6.23417 77.0531 7.172C77.0302 8.36635 76.163 9.14113 75.1556 9.14113H75.1079ZM76.9586 21.9062L78.6701 12.7875H77.1705L77.6388 10.3573H79.1396L79.233 9.77569C79.4917 8.41517 80.0057 7.03387 81.1077 6.09708C81.9749 5.34723 83.1235 5.00762 84.2732 5.00762C85.0698 5.00762 85.6566 5.12082 86.0305 5.28388L85.398 7.8128C85.0657 7.70123 84.7172 7.64544 84.3667 7.64766C83.2887 7.64766 82.6323 8.67377 82.4454 9.77673L82.3269 10.3563H84.5775L84.1309 12.7886H81.9053L80.1937 21.9072H76.9586V21.9062ZM88.5864 10.3573L89.1015 15.5263C89.2151 16.4349 89.3089 17.346 89.383 18.2587H89.4297C89.6883 17.6512 89.922 16.7455 90.3914 15.5034L92.3606 10.3573H95.7359L91.7738 18.8133C90.3675 21.7192 89.0081 23.8379 87.5312 25.2213C86.3826 26.2993 85.0231 26.8311 84.3667 26.9713L83.4756 24.2243C84.0157 24.0373 84.6938 23.7538 85.3035 23.3093C86.0533 22.7931 86.6869 22.089 87.0618 21.363C87.1553 21.1989 87.1791 21.0878 87.1324 20.8541L85.1861 10.3573L88.5864 10.3552V10.3573ZM121.346 11.4426C121.036 11.4426 120.724 11.7043 120.665 12.0138L119.572 17.6886C118.98 20.5789 117.204 20.9735 115.54 20.9735C112.543 20.9735 112.467 19.2661 112.788 17.5961L114.074 10.9275C114.133 10.618 113.922 10.3563 113.612 10.3563C113.302 10.3563 112.99 10.618 112.93 10.9275L111.646 17.5951C111.387 18.94 111.48 19.9422 111.929 20.662C112.492 21.5645 113.64 22.0215 115.338 22.0215C117.036 22.0215 118.359 21.5635 119.271 20.662C119.998 19.9433 120.476 18.94 120.735 17.5961L121.809 12.0148C121.867 11.7043 121.657 11.4426 121.346 11.4426ZM111.02 5.51236C110.71 5.51236 110.396 5.77408 110.337 6.08358L107.405 21.309C107.346 21.6185 107.557 21.8802 107.867 21.8802C108.177 21.8802 108.49 21.6185 108.549 21.309L111.481 6.08358C111.541 5.77305 111.329 5.51236 111.02 5.51236ZM16.3581 3.10496L15.5688 3.34902C15.4712 3.02868 15.3447 2.71789 15.1907 2.42054C14.6309 1.35497 13.8115 0.787912 12.8228 0.786874H12.8186C12.7501 0.786874 12.6815 0.793105 12.613 0.799337C12.5842 0.763589 12.5541 0.728945 12.5226 0.69548C12.0916 0.235393 11.5381 0.0100238 10.8765 0.0297566C9.59698 0.0661066 8.3237 0.989394 7.29136 2.63033C6.56436 3.78315 6.01288 5.23403 5.85606 6.35568L3.33856 7.13565C2.59806 7.36829 2.57418 7.39114 2.47655 8.09009C2.40385 8.61872 0.464844 23.6136 0.464844 23.6136L16.5523 26.3959V3.07173C16.4866 3.07622 16.4215 3.08735 16.3581 3.10496ZM12.6431 4.2557L9.92933 5.0959C10.1921 4.0916 10.6896 3.09146 11.3002 2.43716C11.5266 2.19206 11.8444 1.92099 12.2204 1.76521C12.5756 2.50259 12.6514 3.54843 12.6431 4.2557ZM10.9004 0.880345C11.1713 0.866234 11.4398 0.93664 11.6689 1.08183C11.2967 1.2814 10.9612 1.54307 10.6771 1.85556C9.86493 2.72692 9.24179 4.07914 8.99461 5.38462L6.76584 6.07423C7.20516 4.01994 8.92607 0.936428 10.9004 0.880345ZM8.41301 12.5829C8.49922 13.9507 12.0999 14.2498 12.3025 17.4559C12.4614 19.9786 10.9648 21.7037 8.80767 21.8387C6.21956 22.0028 4.79464 20.4761 4.79464 20.4761L5.343 18.1424C5.343 18.1424 6.77623 19.2246 7.92489 19.1519C8.67473 19.1041 8.94268 18.4945 8.91568 18.0624C8.80352 16.2771 5.87267 16.382 5.68573 13.4491C5.52995 10.9804 7.15115 8.47852 10.729 8.25211C12.1072 8.16591 12.8134 8.51695 12.8134 8.51695L11.995 11.5766C11.995 11.5766 11.0821 11.1611 10.001 11.2297C8.41301 11.3315 8.39536 12.3337 8.41301 12.5829ZM13.4927 3.9919C13.4823 3.34487 13.4054 2.44443 13.1042 1.6655C14.0743 1.84933 14.552 2.9471 14.7535 3.6014L13.4927 3.9919ZM17.0851 26.3326L23.7589 24.6729C23.7589 24.6729 20.8852 5.24545 20.8675 5.11148C20.8585 5.05493 20.8307 5.00305 20.7888 4.96409C20.7468 4.92513 20.693 4.90133 20.6359 4.89649C20.5404 4.88818 18.6606 4.86014 18.6606 4.86014C18.6606 4.86014 17.515 3.74783 17.0851 3.32618V26.3326Z" fill="#090909"/>
</svg>
